<svg xmlns="http://www.w3.org/2000/svg" version="1.1" xmlns:xlink="http://www.w3.org/1999/xlink" width="1000" height="1000"><style>
    #light-icon {
      display: inline;
    }
    #dark-icon {
      display: none;
    }

    @media (prefers-color-scheme: dark) {
      #light-icon {
        display: none;
      }
      #dark-icon {
        display: inline;
      }
    }
  </style><g id="light-icon"><svg xmlns="http://www.w3.org/2000/svg" version="1.1" xmlns:xlink="http://www.w3.org/1999/xlink" width="1000" height="1000"><g clip-path="url(#SvgjsClipPath1350)"><rect width="1000" height="1000" fill="#ffffff"></rect><g transform="matrix(3.380091262464086,0,0,3.380091262464086,0,116.95115768125743)"><svg xmlns="http://www.w3.org/2000/svg" version="1.1" xmlns:xlink="http://www.w3.org/1999/xlink" width="295.85" height="226.65"><svg id="Layer_1" data-name="Layer 1" xmlns="http://www.w3.org/2000/svg" viewBox="0 0 295.85 226.65">
  <path d="M190.69,9.18c1.89,6.17-6.65,6.35-8.18,8.68-2.58,3.96-2.61,14.64-2.34,19.43.92,16.18,4.5,32.47,5.29,48.66.44,9.03-.05,18.48-1.52,27.37.82-.08,1.32-.98,1.82-1.55,11.9-13.71,20.87-33.88,30.57-49.64,11.59-18.84,31.06-50.45,51.85-59.1,5.45-2.27,12.98-3.7,18.72-1.93,3.39,1.05,8.21,4.76,8.78,8.46.23,1.53.48,6.41-1.11,7.09-1.34.58-1.95-3.05-3.41-3.33-23.8-12.97-45.61,13.81-58.03,31.12-11.02,15.36-20.21,32.37-30.43,48.27l14.75-10.73c15.9-9.73,34.84-16.48,53.81-14.32,7.05.8,18,6.01,19.16,13.83,2.37,16.07-11.99,26.54-26.98,22.83-.38-2.17.57-1.19,1.68-1.66,6-2.58,10.4-6.91,12.23-13.29,3.35-11.69-1.99-21.42-14.97-20.2-29.68,2.78-62.64,49.79-70.74,76.18-2.83,9.2-5.82,23.17-1.85,32.2,4.16,9.44,17.81,8.13,25.6,4.27,8.86-4.39,17.76-12.92,22.88-21.35,2.51-4.13,5.9-10.48,3.3-15.17-2.42-4.36-17.27-2.21-21.94-2.81l-4.18-1.44c2.34-.1,4.73.16,7.07-.06,8.21-.76,16.4-3.24,24.76-2.16,11.99,1.56,10.71,16.05,8.3,24.7-6.87,24.69-31.19,55.03-56.62,61.82-10.81,2.88-34.29,2.1-32.22-14.21,1.86-14.64,23.42-18.97,35.38-15.95.75.19,2.25.27,2.07,1.3-9.88-1.3-21.43,4.75-23.66,14.95-3.11,14.24,9.18,15.63,19.1,10.09,10.44-5.82,21.43-22.11,27.68-32.29s11.05-19.92,15.14-30.58l-7.51,11.23c-12.09,14.78-30.64,21.23-49.15,14.64-15.62-5.56-17.33-19.39-16.87-34.14.73-23.28-4.94-43.54-6.78-66.62-1.17-14.65-1.78-33.35.98-47.83.66-3.47,2.27-6.79,2.82-10.29-3.15,2.91-5.77,7.31-8.11,11-9.02,14.26-16.65,29.78-25.75,43.96-23.24,36.2-70.36,91.34-119.32,75.98-16.26-5.1-17.1-24.49-1.85-30.69,4.02-1.63,8.77-2.13,12.91-1.33,1.24.24,1.27-.43,1.12,1.48-7.14,1.58-10.62,9.96-9.71,16.82,1.59,11.99,17.36,12.36,26.5,10.82,36.73-6.19,69.64-48.24,88.53-77.9,12.38-19.44,21.82-41.08,37.18-58.39l-40.1-7.52c-13.72-.31-28.69-1.04-38.29,10.49-8.65,10.39-8.98,31.68,8.64,30.74.31,1.39-.44,1.46-1.25,2.12-4.57,3.74-10.47,4.44-16.03,2.78-9.72-2.89-9.89-14.88-6.12-22.67,5.34-11.03,21.85-23.56,32.98-28.49,17.84-7.91,32.48-4.89,50.44.16,8.06,2.27,19.09,7.02,27.37,7.06,2.27.01,3.92-1.75,5.61-2.93v.04h0Z"></path>
</svg></svg></g></g><defs><clipPath id="SvgjsClipPath1350"><rect width="1000" height="1000" x="0" y="0" rx="100" ry="100"></rect></clipPath></defs></svg></g><g id="dark-icon"><svg xmlns="http://www.w3.org/2000/svg" version="1.1" xmlns:xlink="http://www.w3.org/1999/xlink" width="1000" height="1000"><g clip-path="url(#SvgjsClipPath1351)"><rect width="1000" height="1000" fill="#ffffff"></rect><g transform="matrix(3.380091262464086,0,0,3.380091262464086,0,116.95115768125743)"><svg xmlns="http://www.w3.org/2000/svg" version="1.1" xmlns:xlink="http://www.w3.org/1999/xlink" width="295.85" height="226.65"><svg id="Layer_1" data-name="Layer 1" xmlns="http://www.w3.org/2000/svg" viewBox="0 0 295.85 226.65">
  <path d="M190.69,9.18c1.89,6.17-6.65,6.35-8.18,8.68-2.58,3.96-2.61,14.64-2.34,19.43.92,16.18,4.5,32.47,5.29,48.66.44,9.03-.05,18.48-1.52,27.37.82-.08,1.32-.98,1.82-1.55,11.9-13.71,20.87-33.88,30.57-49.64,11.59-18.84,31.06-50.45,51.85-59.1,5.45-2.27,12.98-3.7,18.72-1.93,3.39,1.05,8.21,4.76,8.78,8.46.23,1.53.48,6.41-1.11,7.09-1.34.58-1.95-3.05-3.41-3.33-23.8-12.97-45.61,13.81-58.03,31.12-11.02,15.36-20.21,32.37-30.43,48.27l14.75-10.73c15.9-9.73,34.84-16.48,53.81-14.32,7.05.8,18,6.01,19.16,13.83,2.37,16.07-11.99,26.54-26.98,22.83-.38-2.17.57-1.19,1.68-1.66,6-2.58,10.4-6.91,12.23-13.29,3.35-11.69-1.99-21.42-14.97-20.2-29.68,2.78-62.64,49.79-70.74,76.18-2.83,9.2-5.82,23.17-1.85,32.2,4.16,9.44,17.81,8.13,25.6,4.27,8.86-4.39,17.76-12.92,22.88-21.35,2.51-4.13,5.9-10.48,3.3-15.17-2.42-4.36-17.27-2.21-21.94-2.81l-4.18-1.44c2.34-.1,4.73.16,7.07-.06,8.21-.76,16.4-3.24,24.76-2.16,11.99,1.56,10.71,16.05,8.3,24.7-6.87,24.69-31.19,55.03-56.62,61.82-10.81,2.88-34.29,2.1-32.22-14.21,1.86-14.64,23.42-18.97,35.38-15.95.75.19,2.25.27,2.07,1.3-9.88-1.3-21.43,4.75-23.66,14.95-3.11,14.24,9.18,15.63,19.1,10.09,10.44-5.82,21.43-22.11,27.68-32.29s11.05-19.92,15.14-30.58l-7.51,11.23c-12.09,14.78-30.64,21.23-49.15,14.64-15.62-5.56-17.33-19.39-16.87-34.14.73-23.28-4.94-43.54-6.78-66.62-1.17-14.65-1.78-33.35.98-47.83.66-3.47,2.27-6.79,2.82-10.29-3.15,2.91-5.77,7.31-8.11,11-9.02,14.26-16.65,29.78-25.75,43.96-23.24,36.2-70.36,91.34-119.32,75.98-16.26-5.1-17.1-24.49-1.85-30.69,4.02-1.63,8.77-2.13,12.91-1.33,1.24.24,1.27-.43,1.12,1.48-7.14,1.58-10.62,9.96-9.71,16.82,1.59,11.99,17.36,12.36,26.5,10.82,36.73-6.19,69.64-48.24,88.53-77.9,12.38-19.44,21.82-41.08,37.18-58.39l-40.1-7.52c-13.72-.31-28.69-1.04-38.29,10.49-8.65,10.39-8.98,31.68,8.64,30.74.31,1.39-.44,1.46-1.25,2.12-4.57,3.74-10.47,4.44-16.03,2.78-9.72-2.89-9.89-14.88-6.12-22.67,5.34-11.03,21.85-23.56,32.98-28.49,17.84-7.91,32.48-4.89,50.44.16,8.06,2.27,19.09,7.02,27.37,7.06,2.27.01,3.92-1.75,5.61-2.93v.04h0Z"></path>
</svg></svg></g></g><defs><clipPath id="SvgjsClipPath1351"><rect width="1000" height="1000" x="0" y="0" rx="0" ry="0"></rect></clipPath></defs></svg></g></svg>