<?xml version="1.0" encoding="utf-8"?>
<!-- Generator: Adobe Illustrator 19.2.1, SVG Export Plug-In . SVG Version: 6.00 Build 0)  -->
<svg version="1.1" id="layer" xmlns="http://www.w3.org/2000/svg" xmlns:xlink="http://www.w3.org/1999/xlink" x="0px" y="0px"
	 viewBox="0 0 652 652" style="enable-background:new 0 0 652 652;" xml:space="preserve">
<path d="M392.8,322.6c0-45.4-15.1-67.5-46.1-67.5h-1.8c-8.4,0-10.8,2.4-10.8,10.9v113.1c0,8.4,2.4,10.9,10.8,10.9h1.8
	C377.8,390,392.8,368,392.8,322.6L392.8,322.6z M418,322.4c0,43.1-28.3,72.1-70.4,72.1h-50.8V390h3.2c8.4,0,10.8-2.4,10.8-10.9V266
	c0-8.4-2.4-10.8-10.8-10.8h-3.2v-4.7h50.8C389.7,250.5,418,279.4,418,322.4z M206.6,285.8c0-21.8-9.6-32-30.3-32h-3.6
	c-9,0-12.2,3-12.2,12.3v51.6h14C196.7,317.6,206.6,307.7,206.6,285.8z M233.2,390h3.6v4.5h-10.3c-17.3,0-24.1-9-24.3-32.1v-8.3
	c0-30.5-8.3-33.5-28.6-33.5h-11.8v58.5c0,8.4,2.4,10.9,10.8,10.9h4.4v4.5h-52.4V390h3.2c8.4,0,10.8-2.4,10.8-10.9V266
	c0-8.4-2.4-10.8-10.8-10.8h-2.4v-4.7h54.4c23.9,0,48.2,12.7,48.2,36.9c0,18.8-14.3,28.1-31,31.2c16.6,3.8,29,14.4,29,41.8v18.9
	C226.1,387.3,227.9,390,233.2,390z M104.7,356c0-24.4-10.1-35.3-32.7-35.3H57.9v58.5c0,8.4,2.4,10.9,10.8,10.9h6
	C95.5,390,104.7,379.5,104.7,356L104.7,356z M57.9,316.2h14.2c18.7,0,27-9.4,27-30.6c0-21-8.5-30.4-27.4-30.4h-3
	c-8.4,0-10.8,2.4-10.8,10.9C57.9,266,57.9,316.2,57.9,316.2z M129.3,357.2c0,23.4-19.1,37.3-51.2,37.3H20.5V390h3.3
	c8.4,0,10.8-2.4,10.8-10.9V266c0-8.4-2.4-10.9-10.8-10.9h-3.3v-4.7h55c27.9,0,46.6,14.5,46.6,36.1c0,19.2-13.9,28.7-29.9,31.9
	C111.8,322.6,129.3,334.3,129.3,357.2z M515.8,343c-1.4,34-14.1,47.2-45.3,47.2h-7c-8.4,0-10.8-2.4-10.8-10.9v-58.5h9.4
	c18.3,0,26.4,8.8,26.4,28.6v1.4h4.5v-62.4h-4.5v1.4c0,22-10.1,26.4-26.4,26.4h-9.4v-50.1c0-8.4,2.4-10.9,10.8-10.9h7
	c28.3,0,41.5,13.1,41.5,41.1v1.4h4.5v-47.2h-101v4.7h3.2c8.4,0,10.8,2.4,10.8,10.8v113.1c0,8.4-2.4,10.9-10.8,10.9h-3.2v4.5h104.8
	v-53.1h-4.4C515.8,341.6,515.8,343,515.8,343z M596.5,314.1c-5.4-2.6-11.2-4.7-16.8-6.8c-18-6.7-33.6-12.5-33.6-29.6
	c0-11.8,8.3-24.6,26.6-24.6c21,0,36.3,18.1,36.3,43.1v1.4h4.3v-49.3h-4.3v1.4c0,5.4-2.6,5.4-3.8,5.4c-2.4,0-5.7-1-9.6-2.3
	c-6.6-2.1-14.7-4.6-24.7-4.6c-24.5,0-41.6,16-41.6,38.9c0,18.4,10.7,30.1,37,40.3c1.6,0.6,3.2,1.2,4.8,1.8
	c16.4,6.1,33.4,12.3,33.4,33.4c0,17.5-11.1,29.2-27.6,29.2c-31.3,0-45.9-29.3-45.9-49.1v-1.4h-4.5v53.1h4.5v-1.4
	c0-3.9,1.9-5.8,5.8-5.8c3.4,0,7,1.4,11.5,3.1c7,2.7,15.8,6,28.2,6c26.6,0,43.9-17,43.9-43.4C620.5,333.7,613.3,322,596.5,314.1
	L596.5,314.1z M240.5,250.5h51.4v4.7h-3.2c-8.4,0-10.8,2.4-10.8,10.9v113.1c0,8.4,2.4,10.9,10.8,10.9h3.2v4.5h-51.4V390h3.3
	c8.4,0,10.8-2.4,10.8-10.9V266c0-8.4-2.4-10.8-10.8-10.8h-3.3L240.5,250.5L240.5,250.5z"/>
</svg>
