<svg xmlns="http://www.w3.org/2000/svg" xmlns:xlink="http://www.w3.org/1999/xlink" width="147.652" height="34.537" viewBox="0 0 147.652 34.537">
  <defs>
    <clipPath id="clip-path">
      <rect id="Rectangle_164" data-name="Rectangle 164" width="147.652" height="34.537" fill="none"/>
    </clipPath>
  </defs>
  <g id="Vector_Smart_Object" data-name="Vector Smart Object" transform="translate(73.826 17.268)">
    <g id="Group_244" data-name="Group 244" transform="translate(-73.826 -17.268)" clip-path="url(#clip-path)">
      <path id="Path_1947" data-name="Path 1947" d="M10.48,104.538c3.273,0,3.6,1.375,3.6,2.971H7.069c0-1.513.99-1.623,2.531-1.623v-.165H4.263v.165c1.54,0,2.586.11,2.586,1.623H.248c0-1.6.248-2.861,3.6-2.861v-.165H0V110.2H.248v-1.018H14.083V110.2h.248v-5.8H10.48v.138Z" transform="translate(0 -75.684)"/>
      <path id="Path_1948" data-name="Path 1948" d="M10.48,1.965c3.273,0,3.6,1.375,3.6,2.971H7.069c0-1.513.99-1.623,2.531-1.623V3.148H4.263v.165c1.54,0,2.586.11,2.586,1.623H.248c0-1.6.248-2.861,3.6-2.861V1.91H0V7.631H.248V6.614H14.083V7.631h.248V1.8H10.48v.165Z" transform="translate(0 -1.305)"/>
      <path id="Path_1949" data-name="Path 1949" d="M.248,71.708V70.69H0v3.741H.248V73.414H14.083v1.018h.248V68.6H10.48v.165c3.273,0,3.6,1.375,3.6,2.971H.248Z" transform="translate(0 -49.731)"/>
      <path id="Path_1950" data-name="Path 1950" d="M.248,38.536V37.49H0v3.741H.248V40.214H14.083v1.018h.248V35.4H10.48v.165c3.273,0,3.6,1.375,3.6,2.971Z" transform="translate(0 -25.663)"/>
      <path id="Path_1951" data-name="Path 1951" d="M69.288,4.523V32.249h3.878a16.7,16.7,0,0,0,5.611-.908,12.983,12.983,0,0,0,4.4-2.641,13.576,13.576,0,0,0,4.346-10.287,13.582,13.582,0,0,0-3.988-10.04A13.148,13.148,0,0,0,79,5.541a16.944,16.944,0,0,0-5.584-.99H69.288ZM85.159,30.736c-3.3,2.971-6.821,4.236-12.13,4.236H66.4V1.8h6.656c5.281,0,8.912,1.293,12.185,4.236A16.657,16.657,0,0,1,90.5,18.414a16.217,16.217,0,0,1-5.336,12.323" transform="translate(-48.136 -1.305)"/>
      <path id="Path_1952" data-name="Path 1952" d="M165.1,34.945V1.8h16.5V4.523H168.016V15.47H181.3v2.7H168.016V32.249H181.6v2.7Z" transform="translate(-119.688 -1.305)"/>
      <path id="Path_1953" data-name="Path 1953" d="M354.819,2.751a14.359,14.359,0,1,0,14.248,14.358A14.358,14.358,0,0,0,354.819,2.751m0,31.467A17.246,17.246,0,0,1,337.6,17.164a17.219,17.219,0,0,1,34.438-.055A17.27,17.27,0,0,1,354.819,34.19" transform="translate(-244.74)"/>
      <path id="Path_1954" data-name="Path 1954" d="M475.188,4.523V17.231h2.833a10.783,10.783,0,0,0,3.081-.413,6.354,6.354,0,0,0,2.338-1.238,5.994,5.994,0,0,0,1.925-4.759,6.018,6.018,0,0,0-2.393-5.061,7.344,7.344,0,0,0-2.338-.935,13.808,13.808,0,0,0-2.668-.275h-2.778ZM472.3,1.8h5.006c3.6,0,5.694.523,7.482,1.76a9.124,9.124,0,0,1,3.493,6.877v.853A8.169,8.169,0,0,1,483.44,18.8a12.193,12.193,0,0,1-3.878.908H479.4l10.645,15.238h-3.548L476.151,19.871h-.963V34.945H472.3Z" transform="translate(-342.389 -1.305)"/>
      <path id="Path_1955" data-name="Path 1955" d="M250.429.5a16.038,16.038,0,0,1,9.737,3.218,5.882,5.882,0,0,1,.715.55V8.037a13.3,13.3,0,0,0-5.639-3.851,13.835,13.835,0,0,0-4.979-.935,14.5,14.5,0,0,0-14.138,14.138v.688a14.372,14.372,0,0,0,13.423,13.863h1.43a15.939,15.939,0,0,0,7.537-2.641,17.162,17.162,0,0,0,1.65-1.32,6.188,6.188,0,0,0,.66-.605v3.658a16.778,16.778,0,0,1-10.507,3.686A17.3,17.3,0,0,1,233.1,17.664,17.436,17.436,0,0,1,250.429.5" transform="translate(-168.983 -0.362)"/>
    </g>
  </g>
</svg>
