<?xml version="1.0" encoding="UTF-8"?>
<svg id="Layer_1" data-name="Layer 1" xmlns="http://www.w3.org/2000/svg" viewBox="0 0 339.26 277.98">
  <path d="M213.29,9.15c1.89,6.17-6.65,6.35-8.18,8.68-2.58,3.96-2.61,14.64-2.34,19.43.92,16.18,4.5,32.47,5.29,48.66.44,9.03-.05,18.48-1.52,27.37.82-.08,1.32-.98,1.82-1.55,11.9-13.71,20.87-33.88,30.57-49.64,11.59-18.84,31.06-50.45,51.85-59.1,5.45-2.27,12.98-3.7,18.72-1.93,3.39,1.05,8.21,4.76,8.78,8.46.23,1.53.48,6.41-1.11,7.09-1.34.58-1.95-3.05-3.41-3.33-23.8-12.97-45.61,13.81-58.03,31.12-11.02,15.36-20.21,32.37-30.43,48.27l14.75-10.73c15.9-9.73,34.84-16.48,53.81-14.32,7.05.8,18,6.01,19.16,13.83,2.37,16.07-11.99,26.54-26.98,22.83-.38-2.17.57-1.19,1.68-1.66,6-2.58,10.4-6.91,12.23-13.29,3.35-11.69-1.99-21.42-14.97-20.2-29.68,2.78-62.64,49.79-70.74,76.18-2.83,9.2-5.82,23.17-1.85,32.2,4.16,9.44,17.81,8.13,25.6,4.27,8.86-4.39,17.76-12.92,22.88-21.35,2.51-4.13,5.9-10.48,3.3-15.17-2.42-4.36-17.27-2.21-21.94-2.81l-4.18-1.44c2.34-.1,4.73.16,7.07-.06,8.21-.76,16.4-3.24,24.76-2.16,11.99,1.56,10.71,16.05,8.3,24.7-6.87,24.69-31.19,55.03-56.62,61.82-10.81,2.88-34.29,2.1-32.22-14.21,1.86-14.64,23.42-18.97,35.38-15.95.75.19,2.25.27,2.07,1.3-9.88-1.3-21.43,4.75-23.66,14.95-3.11,14.24,9.18,15.63,19.1,10.09,10.44-5.82,21.43-22.11,27.68-32.29s11.05-19.92,15.14-30.58l-7.51,11.23c-12.09,14.78-30.64,21.23-49.15,14.64-15.62-5.56-17.33-19.39-16.87-34.14.73-23.28-4.94-43.54-6.78-66.62-1.17-14.65-1.78-33.35.98-47.83.66-3.47,2.27-6.79,2.82-10.29-3.15,2.91-5.77,7.31-8.11,11-9.02,14.26-16.65,29.78-25.75,43.96-23.24,36.2-70.36,91.34-119.32,75.98-16.26-5.1-17.1-24.49-1.85-30.69,4.02-1.63,8.77-2.13,12.91-1.33,1.24.24,1.27-.43,1.12,1.48-7.14,1.58-10.62,9.96-9.71,16.82,1.59,11.99,17.36,12.36,26.5,10.82,36.73-6.19,69.64-48.24,88.53-77.9,12.38-19.44,21.82-41.08,37.18-58.39l-40.1-7.52c-13.72-.31-28.69-1.04-38.29,10.49-8.65,10.39-8.98,31.68,8.64,30.74.31,1.39-.44,1.46-1.25,2.12-4.57,3.74-10.47,4.44-16.03,2.78-9.72-2.89-9.89-14.88-6.12-22.67,5.34-11.03,21.85-23.56,32.98-28.49,17.84-7.91,32.48-4.89,50.44.16,8.06,2.27,19.09,7.02,27.37,7.06,2.27.01,3.92-1.75,5.61-2.93Z"/>
  <path d="M246.3,243.68c7.11-6.25,3.4-13.31-5.51-8.12-6.36,3.7-14.06,14.93-15.33,22.15-2.54,14.51,14.57,6.26,14.83-2.77l-6.74-1.51c3.36.59,6.84-2.13,9.73.39,4.05,3.53-2.19,13.45-4.91,16.79-3.65,4.47-12.54,9.93-17.97,6.07-5.77-4.1,3.93-9.97,8.64-8.26-.6,1.93-2.84,1.16-4.18,2.19-3.02,2.31-2.76,7.55,2.73,5.72,2.88-.96,9.53-9.93,10.45-12.79.12-.38.2-1.23-.37-1.11-3.29,5.8-16.52,6.33-17.6-1.15-1.38-9.5,3.78-17.15,10.85-22.83,4.68-3.76,18.07-9.13,22.02-2.53,2.71,4.53-2.04,8.57-6.65,7.77Z"/>
  <path d="M44.54,234.69c.67,1.95-2.14,1.89-2.28,2.72-.63,3.7.63,7.73.81,11.12.18,3.61-.18,7.28-.02,10.88l11.67-19.43c2.93-2.95,6.55-7.92,11.15-7.54,2.22.18,3.4,1.49,3.42,3.74-2.43-.16-4.45-1.31-6.98-.6-7.83,2.18-18.18,27-23.4,33.57-2.72.04.01-1.93.25-2.75.81-2.81-1.89-11.85-2.14-15.58-.23-3.43.08-6.8.77-10.13l-3.61,5c-3.6,6.75-8.39,14.49-14.43,19.3-4.73,3.77-11.22,6.99-17.21,4.56-4.69-1.91-2.42-9.07,3.01-7.87-4.41,6.51.76,8.61,6.75,6.37,7.69-2.87,14.33-12.16,18.61-18.87l6.88-12.23c-4.75-1.65-17.41-4-18.04,3.33-.08.94-.14,2.76.36,3.46.69.96,2.26.25,2.68,1.07-5.11,3.62-8.05-.83-4.84-5.59s9.27-7.37,14.79-6.59c4,.57,8.12,3.83,11.8,2.06Z"/>
  <path d="M97.05,262.42l7.49,4.12c5.41,2.59,10.58-.18,10.51-6.37,2.85.7.58,5.16-.77,6.36-3.11,2.76-9,3.13-12.95,2.48-2.33-.38-5.94-2.72-7.69-2.85s-3.87,1.32-5.94,1.53c-2.28.24-9.22.47-8.32-3.06,1.09-4.25,7.11-3.91,10.58-3.73,6.23.32,5.63,2.57,9.48-3.95l4.36-9.5c-14.52-1.2-10.35-13.64,2.25-13.49-1.23,2.08-3.58,1.35-5.64,2.98-4.48,3.55-2.83,8.25,2.41,9.61,3.17.82,2.88-1.77,4.73-3.98,1.56-1.87,5.3-5.71,7.23-7.01,2.74-1.84,10.67-5.01,13.06-2.04,3.28,4.09-4.73,9.91-8.1,11.49-2.35,1.1-7.73,1.85-9.21,2.79-.36.23-3.75,5.87-4.84,7.15-2.17,2.55-5.71,6.15-8.64,7.48ZM112.05,245.93c4.75-.19,11.67-4.1,13.67-8.44,1.24-2.69.84-4.75-2.45-3.97-3.48.82-5.92,4.9-8.56,7.2l-2.65,5.21ZM91.8,264.66c-3.67-.64-8.4-3.45-11.24.37.03,2.63,10.17,2.68,11.24-.37Z"/>
  <path d="M328.8,251.92c2.41-2.9,9.36-6.55,10.38-.96,1.04,5.71-9.33,17.6-15.11,15.85-.78-.24-1.46-1.63-2.37-1.4s-3.81,7.5-5.98,9.04c-1.71,1.21-4.64.44-6.42,2.95l14.99-25.86c-.11-3.03-2.55.76-3.74,1.13.57-4.25,9.1-7.44,8.25-.75ZM334.8,249.68c-2.31-2.39-10.97,11.32-11.67,13.44-.88,2.64,1.43,2.71,3.44,1.19,1.88-1.43,9.47-13.35,8.23-14.63Z"/>
  <path d="M57.3,264.66c1.26.18,2.21-.25,3.27-.85,1.77-1,8.3-9.93,9.13-11.92.52-1.23-1.02-2.49.32-3.36,3.61-2.35,5.39,1.39,4.19,4.94-.74,2.2-6.38,9.31-6.41,10.82,0,.41,1.12,1.47,2.25.76.93-.59,4.59-4.44,5.06-5.45.7-1.52,1.04-1.93.86.11-2.22,4.9-11.47,12.14-11.93,2.7-2.58,1.91-4.9,4.85-8.47,4.36-7.72-1.06,3.15-12.63,3.96-15.24,1-3.22-3.57,1.32-3.74,1.13.1-4.37,9.01-6.45,9.01-1.89,0,2.18-8.13,13.35-7.52,13.87Z"/>
  <path d="M297.3,265.41c.64.73,6.42-5.24,7.07-6.05.73-.9,4.67-6.63,4.83-7.22.64-2.35-2.38-3.45,2.01-3.96,8.39-.96-1.29,11.16-2.57,13.95-3.05,6.66,3.01,1.57,5.27-1.48.55-.74,1.49-2.38,1.37-.13-2.11,4.54-10.75,10.24-12,2.63-.36-.45-7.27,6.55-10.15,2.28-2.37-3.52,4.98-11.29,6.4-14.65l-3,.75c-1.14.87.1-1.66.16-1.72,1.82-1.68,7.01-3.03,7.38.22.62,5.37-6.83,9.79-6.79,15.36Z"/>
  <path d="M284.35,247.55c2.41-.38,4.79.88,5.32,3.4,1.35,6.37-9.29,19.46-15.91,15.12-6.99-4.57,3.58-17.42,10.59-18.52ZM286.8,248.93c-1.19-.18-1.72.01-2.66.71-2.1,1.58-9.49,14.07-7.84,15.77,1.19.18,1.72-.01,2.66-.71,2.1-1.57,9.65-13.91,7.84-15.77Z"/>
  <path d="M147.3,265.41c4.57,1.03,12.06-10.83,11.15-13.71-.22-.7-1.31-1.36-1.31-1.65-.01-1.6,5.91-3.93,5.02,1.34-.86,5.06-9.23,14.98-14.53,15.53-3.76.39-5.45-1.92-4.7-5.48.59-2.83,6.54-9.36,6.61-10.64.02-.36-.76-1.4-1.88-.38-1.38,1.27-.51,2.88-1.86,3.01-1.39-5.33,7.61-7.52,8.27-2.61.55,4.04-7.02,9.93-6.78,14.6Z"/>
  <path d="M204.29,238.43l-9.61,14.75c-.96,2.29-5.93,9.06-5.38,11.09.86,3.22,4.82-1.85,6-2.98.52-.49,1.49-2.06,2.24-1.5-2,3.02-6.39,8.83-10.5,6.75-5.08-2.56.32-10.58,2.39-14.11,1.24-2.12,7.74-11.93,9.36-12.37,1.92-.53,3.7.38,5.5-1.62Z"/>
  <path d="M130.11,255.7c-.58.65-2.47,4.87-2.72,5.93-.31,1.29-.48,2.46-.34,3.78,4.57.72,7.7-2.68,9-6.74,1.38-.16.72,1.6.42,2.29-1.45,3.36-6.11,6.42-9.77,5.94-6.81-.9-4.16-9.27-1.16-13.11,1.49-1.91,6.31-5.24,8.65-5.59,4.08-.61,7.73-.34,6.23,4.73-.42,1.41-4.09,3.3-5.54,3.48-1.56.2-4.62-.9-4.78-.72ZM137.55,248.93c-1.39-.3-1.78.76-2.62,1.5-.78.68-2.55,2.27-3.01,2.99-.72,1.13.37,2.26.76,2.25,1.38-.04,6.1-4.56,4.88-6.73Z"/>
  <path d="M176.34,248.34c10.93-1.9,7.2,7.81-.18,8.13-3.7.16-3.48-1.92-5.75,3.17-1.77,3.96-2.43,6.79,3.19,5.43l8.95-6.79c-2.42,3.73-7.66,8.67-12.37,8.67-11.61-.01-2.72-17.07,6.16-18.61ZM180.3,248.93c-3.43.21-4.79,3.38-6.74,5.62,1.1,1.45.94.84,2.03.55,2.79-.73,4.82-3.19,4.71-6.17Z"/>
  <path d="M270.23,248.25c.3.42.17,3.18-.05,3.93-.75,2.59-4.29,3.16-6.62,2.74l3-5.24c-1.93-1.88-9.06,9.21-9.89,10.72-1.1,2.03-2.39,4.11-2.11,6.51-8.94-1.86.19-11.5,2.25-16.11l-3.38,1.12c-.36-.63.72-2.22,1.13-2.62,1.23-1.19,5.51-1.82,6.42-.41.73,1.12-.38,3.14,1.08,3.04-.11-3.01,6.71-5.7,8.18-3.67Z"/>
</svg>